HIERARCHY
ROOT Hips
{
	OFFSET 0.0 87.035881 0.0
	CHANNELS 6 Xposition Yposition Zposition Zrotation Yrotation Xrotation 
	JOINT Spine
	{
		OFFSET 0.000000 8.814246 -2.080107
		CHANNELS 3 Zrotation Yrotation Xrotation
		JOINT Spine1
		{
			OFFSET 0.000000 8.844141 0.000000
			CHANNELS 3 Zrotation Yrotation Xrotation
			JOINT Spine2
			{
				OFFSET -0.000000 11.682268 0.000000
				CHANNELS 3 Zrotation Yrotation Xrotation
				JOINT Spine3
				{
					OFFSET 0.000000 11.746700 0.000000
					CHANNELS 3 Zrotation Yrotation Xrotation
					JOINT Neck
					{
						OFFSET -0.000000 17.658264 -0.000000
						CHANNELS 3 Zrotation Yrotation Xrotation
						JOINT Neck1
						{
							OFFSET 0.000000 5.101515 0.000000
							CHANNELS 3 Zrotation Yrotation Xrotation
							JOINT Head
							{
								OFFSET 0.000000 5.101515 -0.000000
								CHANNELS 3 Zrotation Yrotation Xrotation
								JOINT HeadEnd
								{
									OFFSET 0.000000 11.655085 0.000000
									CHANNELS 3 Zrotation Yrotation Xrotation
									End Site
									{
										OFFSET 0.000000 0.000000 0.000000
									}
								}
							}
						}
					}
					JOINT RightShoulder
					{
						OFFSET -2.625389 11.175210 -0.000000
						CHANNELS 3 Zrotation Yrotation Xrotation
						JOINT RightArm
						{
							OFFSET -10.434715 -0.0 0.0
							CHANNELS 3 Zrotation Yrotation Xrotation
							JOINT RightForeArm
							{
								OFFSET -29.62842 -0.0 -0.0
								CHANNELS 3 Zrotation Yrotation Xrotation
								JOINT RightHand
								{
									OFFSET -22.857611 -0.0 0.0
									CHANNELS 3 Zrotation Yrotation Xrotation
									JOINT RightHandThumb1
									{
										OFFSET -3.959563 -2.867323 2.944291
										CHANNELS 3 Zrotation Yrotation Xrotation
										JOINT RightHandThumb2
										{
											OFFSET -3.350399 -0.0 0.0
											CHANNELS 3 Zrotation Yrotation Xrotation
											JOINT RightHandThumb3
											{
												OFFSET -3.756509 0.0 0.0
												CHANNELS 3 Zrotation Yrotation Xrotation
												JOINT RightHandThumb4
												{
													OFFSET -3.147345 0.0 0.0
													CHANNELS 3 Zrotation Yrotation Xrotation
													End Site
													{
														OFFSET 0.000000 0.000000 0.000000
													}
												}
											}
										}
									}
									JOINT RightHandIndex1
									{
										OFFSET -10.030893 -0.086752 2.34528
										CHANNELS 3 Zrotation Yrotation Xrotation
										JOINT RightHandIndex2
										{
											OFFSET -4.06109 -0.0 -0.0
											CHANNELS 3 Zrotation Yrotation Xrotation
											JOINT RightHandIndex3
											{
												OFFSET -3.248873 0.0 0.0
												CHANNELS 3 Zrotation Yrotation Xrotation
												JOINT RightHandIndex4
												{
													OFFSET -2.639709 -0.0 -0.0
													CHANNELS 3 Zrotation Yrotation Xrotation
													End Site
													{
														OFFSET 0.000000 0.000000 0.000000
													}
												}
											}
										}
									}
									JOINT RightHandMiddle1
									{
										OFFSET -9.502952 0.104102 0.006768
										CHANNELS 3 Zrotation Yrotation Xrotation
										JOINT RightHandMiddle2
										{
											OFFSET -4.568727 -0.0 0.0
											CHANNELS 3 Zrotation Yrotation Xrotation
											JOINT RightHandMiddle3
											{
												OFFSET -3.654981 0.0 0.0
												CHANNELS 3 Zrotation Yrotation Xrotation
												JOINT RightHandMiddle4
												{
													OFFSET -2.741236 0.0 0.0
													CHANNELS 3 Zrotation Yrotation Xrotation
													End Site
													{
														OFFSET 0.000000 0.000000 0.000000
													}
												}
											}
										}
									}
									JOINT RightHandRing1
									{
										OFFSET -8.921708 0.086752 -2.267442
										CHANNELS 3 Zrotation Yrotation Xrotation
										JOINT RightHandRing2
										{
											OFFSET -4.06109 0.0 0.0
											CHANNELS 3 Zrotation Yrotation Xrotation
											JOINT RightHandRing3
											{
												OFFSET -3.654981 -0.0 -0.0
												CHANNELS 3 Zrotation Yrotation Xrotation
												JOINT RightHandRing4
												{
													OFFSET -2.741236 -0.0 0.0
													CHANNELS 3 Zrotation Yrotation Xrotation
													End Site
													{
														OFFSET 0.000000 0.000000 0.000000
													}
												}
											}
										}
									}
									JOINT RightHandPinky1
									{
										OFFSET -7.976997 -0.173504 -4.467199
										CHANNELS 3 Zrotation Yrotation Xrotation
										JOINT RightHandPinky2
										{
											OFFSET -3.350399 0.0 0.0
											CHANNELS 3 Zrotation Yrotation Xrotation
											JOINT RightHandPinky3
											{
												OFFSET -2.842763 -0.0 -0.0
												CHANNELS 3 Zrotation Yrotation Xrotation
												JOINT RightHandPinky4
												{
													OFFSET -2.639709 -0.0 -0.0
													CHANNELS 3 Zrotation Yrotation Xrotation
													End Site
													{
														OFFSET 0.000000 0.000000 0.000000
													}
												}
											}
										}
									}
									JOINT RightForeArmEnd
									{
										OFFSET 0.000000 0.000000 0.000000
										CHANNELS 3 Zrotation Yrotation Xrotation
										End Site
										{
											OFFSET 0.000000 0.000000 0.000000
										}
									}
								}
								JOINT RightArmEnd
								{
									OFFSET 0.000000 0.000000 0.000000
									CHANNELS 3 Zrotation Yrotation Xrotation
									End Site
									{
										OFFSET 0.000000 0.000000 0.000000
									}
								}
							}
						}
					}
					JOINT LeftShoulder
					{
						OFFSET 2.625389 11.175210 0.000000
						CHANNELS 3 Zrotation Yrotation Xrotation
						JOINT LeftArm
						{
							OFFSET 10.813635 0.0 0.0
							CHANNELS 3 Zrotation Yrotation Xrotation
							JOINT LeftForeArm
							{
								OFFSET 28.724781 0.0 -0.0
								CHANNELS 3 Zrotation Yrotation Xrotation
								JOINT LeftHand
								{
									OFFSET 25.716167 -0.644384 -0.328871
									CHANNELS 3 Zrotation Yrotation Xrotation
									JOINT LeftHandThumb1
									{
										OFFSET 3.959563 -2.867323 2.944291
										CHANNELS 3 Zrotation Yrotation Xrotation
										JOINT LeftHandThumb2
										{
											OFFSET 3.350399 0.0 0.0
											CHANNELS 3 Zrotation Yrotation Xrotation
											JOINT LeftHandThumb3
											{
												OFFSET 3.756509 0.0 -0.0
												CHANNELS 3 Zrotation Yrotation Xrotation
												JOINT LeftHandThumb4
												{
													OFFSET 3.1 0.0 0.0
													CHANNELS 3 Zrotation Yrotation Xrotation
													End Site
													{
														OFFSET 0.000000 0.000000 0.000000
													}
												}
											}
										}
									}
									JOINT LeftHandIndex1
									{
										OFFSET 10.030893 -0.086752 2.34528
										CHANNELS 3 Zrotation Yrotation Xrotation
										JOINT LeftHandIndex2
										{
											OFFSET 4.06109 0.0 0.0
											CHANNELS 3 Zrotation Yrotation Xrotation
											JOINT LeftHandIndex3
											{
												OFFSET 3.248873 0.0 -0.0
												CHANNELS 3 Zrotation Yrotation Xrotation
												JOINT LeftHandIndex4
												{
													OFFSET 2.639709 0.0 0.0
													CHANNELS 3 Zrotation Yrotation Xrotation
													End Site
													{
														OFFSET 0.000000 0.000000 0.000000
													}
												}
											}
										}
									}
									JOINT LeftHandMiddle1
									{
										OFFSET 9.502952 0.104102 0.006768
										CHANNELS 3 Zrotation Yrotation Xrotation
										JOINT LeftHandMiddle2
										{
											OFFSET 4.568727 0.0 0.0
											CHANNELS 3 Zrotation Yrotation Xrotation
											JOINT LeftHandMiddle3
											{
												OFFSET 3.654981 0.0 -0.0
												CHANNELS 3 Zrotation Yrotation Xrotation
												JOINT LeftHandMiddle4
												{
													OFFSET 2.741236 0.0 0.0
													CHANNELS 3 Zrotation Yrotation Xrotation
													End Site
													{
														OFFSET 0.000000 0.000000 0.000000
													}
												}
											}
										}
									}
									JOINT LeftHandRing1
									{
										OFFSET 8.921708 0.086752 -2.267442
										CHANNELS 3 Zrotation Yrotation Xrotation
										JOINT LeftHandRing2
										{
											OFFSET 4.06109 0.0 0.0
											CHANNELS 3 Zrotation Yrotation Xrotation
											JOINT LeftHandRing3
											{
												OFFSET 3.654981 0.0 0.0
												CHANNELS 3 Zrotation Yrotation Xrotation
												JOINT LeftHandRing4
												{
													OFFSET 2.741236 0.0 -0.0
													CHANNELS 3 Zrotation Yrotation Xrotation
													End Site
													{
														OFFSET 0.000000 0.000000 0.000000
													}
												}
											}
										}
									}
									JOINT LeftHandPinky1
									{
										OFFSET 7.976997 -0.173504 -4.467199
										CHANNELS 3 Zrotation Yrotation Xrotation
										JOINT LeftHandPinky2
										{
											OFFSET 3.350399 0.0 -0.0
											CHANNELS 3 Zrotation Yrotation Xrotation
											JOINT LeftHandPinky3
											{
												OFFSET 2.842763 0.0 -0.0
												CHANNELS 3 Zrotation Yrotation Xrotation
												JOINT LeftHandPinky4
												{
													OFFSET 2.639709 0.0 0.0
													CHANNELS 3 Zrotation Yrotation Xrotation
													End Site
													{
														OFFSET 0.000000 0.000000 0.000000
													}
												}
											}
										}
									}
									JOINT LeftForeArmEnd
									{
										OFFSET 0.000000 0.000000 0.000000
										CHANNELS 3 Zrotation Yrotation Xrotation
										End Site
										{
											OFFSET 0.000000 0.000000 0.000000
										}
									}
								}
								JOINT LeftArmEnd
								{
									OFFSET 0.000000 0.000000 0.000000
									CHANNELS 3 Zrotation Yrotation Xrotation
									End Site
									{
										OFFSET 0.000000 0.000000 0.000000
									}
								}
							}
						}
					}
				}
			}
		}
	}
	JOINT RightUpLeg
	{
		OFFSET -11.289943 -0.000000 0.000000
		CHANNELS 3 Zrotation Yrotation Xrotation
		JOINT RightLeg
		{
			OFFSET 0.000000 -38.200325 -0.000000
			CHANNELS 3 Zrotation Yrotation Xrotation
			JOINT RightFoot
			{
				OFFSET -0.000000 -39.900856 -0.000000
				CHANNELS 3 Zrotation Yrotation Xrotation
				JOINT RightToeBase
				{
					OFFSET -0.000000 -0.000000 15.261641
					CHANNELS 3 Zrotation Yrotation Xrotation
					JOINT RightToeBaseEnd
					{
						OFFSET 0.000000 0.000000 7.370709
						CHANNELS 3 Zrotation Yrotation Xrotation
						End Site
						{
							OFFSET 0.000000 0.000000 0.000000
						}
					}
				}
				JOINT RightLegEnd
				{
					OFFSET 0.000000 0.000000 0.000000
					CHANNELS 3 Zrotation Yrotation Xrotation
					End Site
					{
						OFFSET 0.000000 0.000000 0.000000
					}
				}
			}
			JOINT RightUpLegEnd
			{
				OFFSET 0.000000 0.000000 0.000000
				CHANNELS 3 Zrotation Yrotation Xrotation
				End Site
				{
					OFFSET 0.000000 0.000000 0.000000
				}
			}
		}
	}
	JOINT LeftUpLeg
	{
		OFFSET 11.315661 -0.000000 0.000000
		CHANNELS 3 Zrotation Yrotation Xrotation
		JOINT LeftLeg
		{
			OFFSET 0.000000 -38.200325 -0.000000
			CHANNELS 3 Zrotation Yrotation Xrotation
			JOINT LeftFoot
			{
				OFFSET 0.000000 -39.900856 -0.000000
				CHANNELS 3 Zrotation Yrotation Xrotation
				JOINT LeftToeBase
				{
					OFFSET 0.000000 -0.000000 15.261641
					CHANNELS 3 Zrotation Yrotation Xrotation
					JOINT LeftToeBaseEnd
					{
						OFFSET 0.000000 -0.000000 7.539996
						CHANNELS 3 Zrotation Yrotation Xrotation
						End Site
						{
							OFFSET 0.000000 0.000000 0.000000
						}
					}
				}
				JOINT LeftLegEnd
				{
					OFFSET 0.000000 0.000000 0.000000
					CHANNELS 3 Zrotation Yrotation Xrotation
					End Site
					{
						OFFSET 0.000000 0.000000 0.000000
					}
				}
			}
			JOINT LeftUpLegEnd
			{
				OFFSET 0.000000 0.000000 0.000000
				CHANNELS 3 Zrotation Yrotation Xrotation
				End Site
				{
					OFFSET 0.000000 0.000000 0.000000
				}
			}
		}
	}
}
MOTION
Frames: 4
Frame Time: 0.03333333333333333
0.000000 87.304039 0.000000 -1.351696 -0.057830 -4.889755 2.294271 -0.954890 4.322198 3.312815 -1.056430 4.611320 0.461044 -0.837826 5.866488 -0.334737 -0.182731 1.059856 4.682567 8.441760 10.528690 -3.659473 7.834511 -7.056406 -1.878811 3.469422 -18.062351 0.000000 -0.000000 -0.000000 -1.4024509999999992 7.268759 -0.180154 71.543831 -6.143544 59.641796 0.261738 42.512466 -19.747786 5.464628 -8.032011 -28.876234 9.142713 40.542114 1.696615 -0.000000 -22.32 0.0 0.000000 -15.5 0.0 0.000000 0.0 0.0 8.860829 -3.176186 0.0 6.202580 0.0 0.0 6.202580 0.0 0.0 -0.000000 -0.0 0.0 8.621538 -6.26837 0.0 6.035077 0.0 0.0 6.035077 0.0 0.0 -0.000000 -0.0 0.0 7.958032 -8.849968 0.0 5.570622 0.0 0.0 5.570622 -0.0 0.0 0.000000 0.0 0.0 6.640872 -12.474762 0.0 4.648610 -0.0 0.0 4.648610 -0.0 0.0 -0.000000 -0.0 0.0 0.000000 -0.0 0.0 0.000000 -0.000000 0.000000 1.140677999999994 -6.609488 -0.133066 -66.725990 4.313208 50.483051 -1.545481 -50.416248 -7.996055 -4.361058 14.879901 -26.589066 -7.353996 -41.368053 1.477447 0.000000 18.0 -0.0 0.000000 12.5 -0.0 -0.000000 0.0 0.0 -5.476604 8.329252 0.0 -3.833623 0.0 -0.0 -3.833623 0.0 -0.0 0.000000 0.0 0.0 -5.239259 11.5312 0.0 -3.667481 0.0 -0.0 -3.667481 0.0 -0.0 0.000000 0.0 0.0 -4.586532 13.947234 0.0 -3.210572 0.0 0.0 -3.210572 0.0 -0.0 0.000000 0.0 0.0 -3.146083 16.393267 0.0 -2.202258 0.0 -0.0 -2.202258 0.0 0.0 0.000000 0.0 -0.0 0.000000 0.0 0.0 0.000000 -0.000000 -0.000000 2.700026 -17.975662 5.233959 -0.141323 -0.641919 12.418096 -5.517920 -19.852654 16.891525 -0.054081 -1.137408 -31.130367 0.000000 0.000000 0.000000 -0.000000 -0.000000 -0.000000 0.000000 0.000000 0.000000 8.423173 3.030296 -1.704119 0.253576 0.931506 15.317421 -0.154702 -4.257220 17.819971 0.079853 0.214439 -29.690790 0.000000 -0.000000 -0.000000 -0.000000 0.000000 -0.000000 -0.000000 -0.000000 0.000000
0.529532 87.342331 0.474945 -1.067840 -0.777886 -5.886320 1.913863 -0.753606 4.810288 3.218220 -0.984852 4.402417 0.055717 -0.576315 6.121419 -0.436059 -0.097195 0.893575 4.482895 8.726676 10.760912 -3.601881 8.024952 -6.949518 -1.832195 3.393456 -17.996092 0.000000 -0.000000 -0.000000 -1.2130810000000025 7.226957 -0.154532 71.560173 -5.947815 59.687492 0.379215 42.077438 -19.628635 5.458570 -7.999591 -29.325171 9.142713 40.542114 1.696615 -0.000000 -22.32 0.0 0.000000 -15.5 0.0 0.000000 0.0 0.0 8.995431 -3.663901 0.0 6.296802 -0.0 0.0 6.296802 0.0 0.0 0.000000 -0.0 0.0 8.722406 -6.634856 0.0 6.105684 -0.0 0.0 6.105684 0.0 0.0 0.000000 0.0 0.0 7.991333 -9.048045 0.0 5.593933 -0.0 0.0 5.593933 -0.0 0.0 0.000000 0.0 0.0 6.605936 -12.5509 0.0 4.624155 0.0 0.0 4.624155 0.0 0.0 0.000000 0.0 0.0 0.000000 -0.0 0.0 0.000000 0.000000 0.000000 0.9314349999999934 -6.527312 -0.104558 -65.920280 4.227046 50.320278 -1.456458 -50.734863 -7.814276 -4.585034 14.902493 -27.157087 -7.353996 -41.368053 1.477447 -0.000000 18.0 0.0 0.000000 12.5 0.0 -0.000000 0.0 -0.0 -5.741078 8.792924 -0.0 -4.018754 0.0 -0.0 -4.018754 0.0 -0.0 0.000000 0.0 -0.0 -5.468100 12.033735 -0.0 -3.827670 0.0 -0.0 -3.827670 0.0 0.0 0.000000 0.0 0.0 -4.749258 14.492364 -0.0 -3.324481 0.0 0.0 -3.324481 0.0 -0.0 -0.000000 0.0 0.0 -3.218052 16.942059 -0.0 -2.252637 0.0 -0.0 -2.252637 0.0 -0.0 0.000000 0.0 0.0 0.000000 0.0 -0.0 0.000000 -0.000000 -0.000000 1.624134 -17.565544 6.566048 -0.151740 -0.686496 12.465856 -5.049565 -19.445557 16.624681 -0.150600 -1.129647 -30.962799 0.000000 -0.000000 0.000000 -0.000000 -0.000000 0.000000 0.000000 0.000000 0.000000 7.883125 3.496543 0.142935 0.243738 0.938766 14.743355 0.200759 -4.050616 17.606501 0.097601 0.194742 -29.678329 0.000000 -0.000000 -0.000000 -0.000000 0.000000 -0.000000 -0.000000 -0.000000 0.000000
1.054185 87.351898 0.947239 -0.900630 -1.220831 -6.851606 1.682106 -0.637723 5.220835 3.194699 -0.925311 4.188817 -0.350627 -0.241171 6.367080 -0.556798 0.024908 0.775765 4.174313 8.929939 10.883337 -3.528232 8.048105 -6.879479 -1.784237 3.370029 -17.996124 0.000000 -0.000000 -0.000000 -0.925255000000007 7.299153 -0.118623 71.472389 -5.876707 59.988781 0.490878 41.809898 -19.717436 5.388495 -7.984265 -29.934196 9.142713 40.542114 1.696615 -0.000000 -22.32 0.0 0.000000 -15.5 0.0 -0.000000 -0.0 0.0 9.300053 -4.086088 0.0 6.510037 -0.0 0.0 6.510037 0.0 0.0 0.000000 -0.0 0.0 8.988083 -6.977017 0.0 6.291658 -0.0 0.0 6.291658 -0.0 0.0 -0.000000 -0.0 0.0 8.182164 -9.298842 0.0 5.727515 -0.0 0.0 5.727515 -0.0 0.0 0.000000 0.0 0.0 6.712182 -12.746734 0.0 4.698527 0.0 0.0 4.698527 0.0 0.0 0.000000 0.0 0.0 0.000000 -0.0 0.0 0.000000 -0.000000 0.000000 0.7379990000000021 -6.427571 -0.078368 -65.119576 3.985464 50.481083 -1.387059 -51.040009 -8.029492 -4.975233 15.197181 -26.760498 -7.651653 -41.228928 1.517517 -0.000000 18.719999 0.0 0.000000 13.0 0.0 0.000000 0.0 0.0 -6.321380 9.072995 -0.0 -4.424966 0.0 -0.0 -4.424966 0.0 0.0 -0.000000 0.0 -0.0 -6.031549 12.266942 -0.0 -4.222084 0.0 0.0 -4.222084 0.0 -0.0 0.000000 0.0 0.0 -5.297004 14.645136 -0.0 -3.707903 0.0 -0.0 -3.707903 0.0 -0.0 -0.000000 0.0 0.0 -3.723258 17.003155 -0.0 -2.606281 0.0 0.0 -2.606281 0.0 -0.0 0.000000 0.0 0.0 0.000000 0.0 -0.0 0.000000 0.000000 0.000000 0.708393 -17.184450 7.873732 -0.162258 -0.732362 12.491020 -4.547844 -19.253691 16.371346 -0.241130 -1.119263 -30.804544 0.000000 -0.000000 0.000000 -0.000000 0.000000 -0.000000 0.000000 0.000000 0.000000 7.358056 3.164118 1.624317 0.242308 0.940832 14.635336 0.488921 -3.282888 17.209766 0.136015 0.199985 -29.506281 -0.000000 -0.000000 -0.000000 0.000000 0.000000 0.000000 -0.000000 -0.000000 0.000000
1.581396 87.346489 1.416177 -0.797948 -1.433540 -7.896588 1.407451 -0.553594 5.509801 3.329162 -0.923747 4.036858 -0.706769 0.129474 6.849411 -0.621724 0.162382 0.773437 3.849237 8.983649 10.859222 -3.542588 7.920112 -6.952034 -1.786298 3.373818 -18.097551 0.000000 -0.000000 -0.000000 -0.7084959999999967 7.384153 -0.091316 70.850136 -5.324712 60.162727 0.563534 41.558754 -19.609709 5.192420 -7.9842 -30.671722 9.441424 40.40659 1.728222 -0.000000 -23.040001 0.0 0.000000 -16.0 0.0 0.000000 0.0 0.0 9.919550 -4.64232 0.0 6.943685 -0.0 0.0 6.943685 0.0 0.0 -0.000000 0.0 0.0 9.572697 -7.460345 0.0 6.700888 -0.0 0.0 6.700888 0.0 0.0 -0.000000 -0.0 0.0 8.710390 -9.665963 0.0 6.097273 -0.0 0.0 6.097273 -0.0 0.0 0.000000 0.0 0.0 7.147461 -12.994471 0.0 5.003222 -0.0 0.0 5.003222 -0.0 0.0 -0.000000 0.0 0.0 0.000000 -0.0 0.0 0.000000 0.000000 -0.000000 0.5254520000000014 -6.331801 -0.051553 -64.126015 3.263024 50.545704 -1.391513 -51.187672 -8.21579 -5.119073 15.36117 -26.78157 -7.651653 -41.228928 1.517517 -0.000000 18.719999 0.0 0.000000 13.0 -0.0 0.000000 0.0 0.0 -7.103939 9.543368 0.0 -4.972757 0.0 0.0 -4.972757 0.0 -0.0 0.000000 0.0 0.0 -6.731176 12.70405 0.0 -4.711823 0.0 -0.0 -4.711823 0.0 -0.0 0.000000 0.0 0.0 -5.840405 15.026738 -0.0 -4.088284 0.0 -0.0 -4.088284 0.0 -0.0 -0.000000 0.0 0.0 -4.069584 17.336746 0.0 -2.848709 0.0 0.0 -2.848709 0.0 -0.0 0.000000 0.0 0.0 0.000000 0.0 -0.0 -0.000000 0.000000 0.000000 -0.157497 -16.875463 9.281812 -0.172407 -0.777970 12.496607 -4.018861 -19.186201 16.138094 -0.326201 -1.112072 -30.678638 0.000000 -0.000000 0.000000 -0.000000 -0.000000 -0.000000 -0.000000 -0.000000 0.000000 6.857894 2.667272 3.106410 0.242206 0.939767 14.561562 0.784844 -2.556715 16.759544 0.170211 0.209840 -29.156233 0.000000 -0.000000 -0.000000 -0.000000 -0.000000 -0.000000 -0.000000 -0.000000 -0.000000
